<svg width="1920" height="1080" viewBox="0 0 1920 1080" fill="none" xmlns="http://www.w3.org/2000/svg">
<rect width="1920" height="1080" fill="white" style="fill:white;fill-opacity:1;"/>
<path d="M329.559 551.416H344.158C343.865 556.201 342.547 560.449 340.203 564.16C337.892 567.871 334.653 570.768 330.486 572.852C326.352 574.935 321.372 575.977 315.545 575.977C310.988 575.977 306.902 575.195 303.289 573.633C299.676 572.038 296.583 569.759 294.012 566.797C291.473 563.835 289.536 560.254 288.201 556.055C286.867 551.855 286.199 547.152 286.199 541.943V537.012C286.199 531.803 286.883 527.1 288.25 522.9C289.65 518.669 291.635 515.072 294.207 512.109C296.811 509.147 299.92 506.868 303.533 505.273C307.146 503.678 311.183 502.881 315.643 502.881C321.567 502.881 326.564 503.955 330.633 506.104C334.734 508.252 337.908 511.214 340.154 514.99C342.433 518.766 343.8 523.063 344.256 527.881H329.607C329.445 525.016 328.875 522.591 327.898 520.605C326.922 518.587 325.441 517.074 323.455 516.064C321.502 515.023 318.898 514.502 315.643 514.502C313.201 514.502 311.069 514.958 309.246 515.869C307.423 516.781 305.893 518.164 304.656 520.02C303.419 521.875 302.492 524.219 301.873 527.051C301.287 529.85 300.994 533.138 300.994 536.914V541.943C300.994 545.622 301.271 548.861 301.824 551.66C302.378 554.427 303.224 556.771 304.363 558.691C305.535 560.579 307.033 562.012 308.855 562.988C310.711 563.932 312.941 564.404 315.545 564.404C318.605 564.404 321.128 563.916 323.113 562.939C325.099 561.963 326.613 560.514 327.654 558.594C328.729 556.673 329.363 554.281 329.559 551.416ZM390.789 556.396C390.789 555.127 390.594 553.988 390.203 552.979C389.845 551.937 389.161 550.993 388.152 550.146C387.143 549.268 385.727 548.405 383.904 547.559C382.081 546.712 379.721 545.833 376.824 544.922C373.602 543.88 370.542 542.708 367.645 541.406C364.78 540.104 362.241 538.59 360.027 536.865C357.846 535.107 356.121 533.073 354.852 530.762C353.615 528.451 352.996 525.765 352.996 522.705C352.996 519.743 353.647 517.057 354.949 514.648C356.251 512.207 358.074 510.124 360.418 508.398C362.762 506.641 365.529 505.29 368.719 504.346C371.941 503.402 375.473 502.93 379.314 502.93C384.555 502.93 389.129 503.874 393.035 505.762C396.941 507.65 399.969 510.238 402.117 513.525C404.298 516.813 405.389 520.573 405.389 524.805H390.838C390.838 522.721 390.398 520.898 389.52 519.336C388.673 517.741 387.371 516.488 385.613 515.576C383.888 514.665 381.707 514.209 379.07 514.209C376.531 514.209 374.415 514.6 372.723 515.381C371.03 516.13 369.76 517.155 368.914 518.457C368.068 519.727 367.645 521.159 367.645 522.754C367.645 523.958 367.938 525.049 368.523 526.025C369.142 527.002 370.053 527.913 371.258 528.76C372.462 529.606 373.943 530.404 375.701 531.152C377.459 531.901 379.493 532.633 381.805 533.35C385.678 534.521 389.08 535.84 392.01 537.305C394.972 538.77 397.446 540.413 399.432 542.236C401.417 544.059 402.915 546.126 403.924 548.438C404.933 550.749 405.438 553.369 405.438 556.299C405.438 559.391 404.835 562.158 403.631 564.6C402.426 567.041 400.685 569.108 398.406 570.801C396.128 572.493 393.41 573.779 390.252 574.658C387.094 575.537 383.562 575.977 379.656 575.977C376.141 575.977 372.674 575.521 369.256 574.609C365.838 573.665 362.729 572.249 359.93 570.361C357.163 568.473 354.949 566.064 353.289 563.135C351.629 560.205 350.799 556.738 350.799 552.734H365.496C365.496 554.948 365.838 556.82 366.521 558.35C367.205 559.88 368.165 561.117 369.402 562.061C370.672 563.005 372.169 563.688 373.895 564.111C375.652 564.535 377.573 564.746 379.656 564.746C382.195 564.746 384.279 564.388 385.906 563.672C387.566 562.956 388.787 561.963 389.568 560.693C390.382 559.424 390.789 557.992 390.789 556.396ZM452.41 556.396C452.41 555.127 452.215 553.988 451.824 552.979C451.466 551.937 450.783 550.993 449.773 550.146C448.764 549.268 447.348 548.405 445.525 547.559C443.702 546.712 441.342 545.833 438.445 544.922C435.223 543.88 432.163 542.708 429.266 541.406C426.401 540.104 423.862 538.59 421.648 536.865C419.467 535.107 417.742 533.073 416.473 530.762C415.236 528.451 414.617 525.765 414.617 522.705C414.617 519.743 415.268 517.057 416.57 514.648C417.872 512.207 419.695 510.124 422.039 508.398C424.383 506.641 427.15 505.29 430.34 504.346C433.562 503.402 437.094 502.93 440.936 502.93C446.176 502.93 450.75 503.874 454.656 505.762C458.562 507.65 461.59 510.238 463.738 513.525C465.919 516.813 467.01 520.573 467.01 524.805H452.459C452.459 522.721 452.02 520.898 451.141 519.336C450.294 517.741 448.992 516.488 447.234 515.576C445.509 514.665 443.328 514.209 440.691 514.209C438.152 514.209 436.036 514.6 434.344 515.381C432.651 516.13 431.382 517.155 430.535 518.457C429.689 519.727 429.266 521.159 429.266 522.754C429.266 523.958 429.559 525.049 430.145 526.025C430.763 527.002 431.674 527.913 432.879 528.76C434.083 529.606 435.564 530.404 437.322 531.152C439.08 531.901 441.115 532.633 443.426 533.35C447.299 534.521 450.701 535.84 453.631 537.305C456.593 538.77 459.067 540.413 461.053 542.236C463.038 544.059 464.536 546.126 465.545 548.438C466.554 550.749 467.059 553.369 467.059 556.299C467.059 559.391 466.456 562.158 465.252 564.6C464.048 567.041 462.306 569.108 460.027 570.801C457.749 572.493 455.031 573.779 451.873 574.658C448.715 575.537 445.184 575.977 441.277 575.977C437.762 575.977 434.295 575.521 430.877 574.609C427.459 573.665 424.35 572.249 421.551 570.361C418.784 568.473 416.57 566.064 414.91 563.135C413.25 560.205 412.42 556.738 412.42 552.734H427.117C427.117 554.948 427.459 556.82 428.143 558.35C428.826 559.88 429.786 561.117 431.023 562.061C432.293 563.005 433.79 563.688 435.516 564.111C437.273 564.535 439.194 564.746 441.277 564.746C443.816 564.746 445.9 564.388 447.527 563.672C449.188 562.956 450.408 561.963 451.189 560.693C452.003 559.424 452.41 557.992 452.41 556.396ZM506.512 503.906L480.438 581.104H469.988L496.062 503.906H506.512ZM551.141 556.396C551.141 555.127 550.945 553.988 550.555 552.979C550.197 551.937 549.513 550.993 548.504 550.146C547.495 549.268 546.079 548.405 544.256 547.559C542.433 546.712 540.073 545.833 537.176 544.922C533.953 543.88 530.893 542.708 527.996 541.406C525.132 540.104 522.592 538.59 520.379 536.865C518.198 535.107 516.473 533.073 515.203 530.762C513.966 528.451 513.348 525.765 513.348 522.705C513.348 519.743 513.999 517.057 515.301 514.648C516.603 512.207 518.426 510.124 520.77 508.398C523.113 506.641 525.88 505.29 529.07 504.346C532.293 503.402 535.825 502.93 539.666 502.93C544.907 502.93 549.48 503.874 553.387 505.762C557.293 507.65 560.32 510.238 562.469 513.525C564.65 516.813 565.74 520.573 565.74 524.805H551.189C551.189 522.721 550.75 520.898 549.871 519.336C549.025 517.741 547.723 516.488 545.965 515.576C544.24 514.665 542.059 514.209 539.422 514.209C536.883 514.209 534.767 514.6 533.074 515.381C531.382 516.13 530.112 517.155 529.266 518.457C528.419 519.727 527.996 521.159 527.996 522.754C527.996 523.958 528.289 525.049 528.875 526.025C529.493 527.002 530.405 527.913 531.609 528.76C532.814 529.606 534.295 530.404 536.053 531.152C537.811 531.901 539.845 532.633 542.156 533.35C546.03 534.521 549.432 535.84 552.361 537.305C555.324 538.77 557.798 540.413 559.783 542.236C561.769 544.059 563.266 546.126 564.275 548.438C565.285 550.749 565.789 553.369 565.789 556.299C565.789 559.391 565.187 562.158 563.982 564.6C562.778 567.041 561.036 569.108 558.758 570.801C556.479 572.493 553.761 573.779 550.604 574.658C547.446 575.537 543.914 575.977 540.008 575.977C536.492 575.977 533.025 575.521 529.607 574.609C526.189 573.665 523.081 572.249 520.281 570.361C517.514 568.473 515.301 566.064 513.641 563.135C511.98 560.205 511.15 556.738 511.15 552.734H525.848C525.848 554.948 526.189 556.82 526.873 558.35C527.557 559.88 528.517 561.117 529.754 562.061C531.023 563.005 532.521 563.688 534.246 564.111C536.004 564.535 537.924 564.746 540.008 564.746C542.547 564.746 544.63 564.388 546.258 563.672C547.918 562.956 549.139 561.963 549.92 560.693C550.734 559.424 551.141 557.992 551.141 556.396ZM616.961 551.416H631.561C631.268 556.201 629.949 560.449 627.605 564.16C625.294 567.871 622.055 570.768 617.889 572.852C613.755 574.935 608.774 575.977 602.947 575.977C598.39 575.977 594.305 575.195 590.691 573.633C587.078 572.038 583.986 569.759 581.414 566.797C578.875 563.835 576.938 560.254 575.604 556.055C574.269 551.855 573.602 547.152 573.602 541.943V537.012C573.602 531.803 574.285 527.1 575.652 522.9C577.052 518.669 579.038 515.072 581.609 512.109C584.214 509.147 587.322 506.868 590.936 505.273C594.549 503.678 598.585 502.881 603.045 502.881C608.969 502.881 613.966 503.955 618.035 506.104C622.137 508.252 625.311 511.214 627.557 514.99C629.835 518.766 631.202 523.063 631.658 527.881H617.01C616.847 525.016 616.277 522.591 615.301 520.605C614.324 518.587 612.843 517.074 610.857 516.064C608.904 515.023 606.3 514.502 603.045 514.502C600.604 514.502 598.471 514.958 596.648 515.869C594.826 516.781 593.296 518.164 592.059 520.02C590.822 521.875 589.894 524.219 589.275 527.051C588.689 529.85 588.396 533.138 588.396 536.914V541.943C588.396 545.622 588.673 548.861 589.227 551.66C589.78 554.427 590.626 556.771 591.766 558.691C592.938 560.579 594.435 562.012 596.258 562.988C598.113 563.932 600.343 564.404 602.947 564.404C606.007 564.404 608.53 563.916 610.516 562.939C612.501 561.963 614.015 560.514 615.057 558.594C616.131 556.673 616.766 554.281 616.961 551.416ZM678.191 556.396C678.191 555.127 677.996 553.988 677.605 552.979C677.247 551.937 676.564 550.993 675.555 550.146C674.546 549.268 673.13 548.405 671.307 547.559C669.484 546.712 667.124 545.833 664.227 544.922C661.004 543.88 657.944 542.708 655.047 541.406C652.182 540.104 649.643 538.59 647.43 536.865C645.249 535.107 643.523 533.073 642.254 530.762C641.017 528.451 640.398 525.765 640.398 522.705C640.398 519.743 641.049 517.057 642.352 514.648C643.654 512.207 645.477 510.124 647.82 508.398C650.164 506.641 652.931 505.29 656.121 504.346C659.344 503.402 662.876 502.93 666.717 502.93C671.958 502.93 676.531 503.874 680.438 505.762C684.344 507.65 687.371 510.238 689.52 513.525C691.701 516.813 692.791 520.573 692.791 524.805H678.24C678.24 522.721 677.801 520.898 676.922 519.336C676.076 517.741 674.773 516.488 673.016 515.576C671.29 514.665 669.109 514.209 666.473 514.209C663.934 514.209 661.818 514.6 660.125 515.381C658.432 516.13 657.163 517.155 656.316 518.457C655.47 519.727 655.047 521.159 655.047 522.754C655.047 523.958 655.34 525.049 655.926 526.025C656.544 527.002 657.456 527.913 658.66 528.76C659.865 529.606 661.346 530.404 663.104 531.152C664.861 531.901 666.896 532.633 669.207 533.35C673.081 534.521 676.482 535.84 679.412 537.305C682.374 538.77 684.848 540.413 686.834 542.236C688.82 544.059 690.317 546.126 691.326 548.438C692.335 550.749 692.84 553.369 692.84 556.299C692.84 559.391 692.238 562.158 691.033 564.6C689.829 567.041 688.087 569.108 685.809 570.801C683.53 572.493 680.812 573.779 677.654 574.658C674.497 575.537 670.965 575.977 667.059 575.977C663.543 575.977 660.076 575.521 656.658 574.609C653.24 573.665 650.132 572.249 647.332 570.361C644.565 568.473 642.352 566.064 640.691 563.135C639.031 560.205 638.201 556.738 638.201 552.734H652.898C652.898 554.948 653.24 556.82 653.924 558.35C654.607 559.88 655.568 561.117 656.805 562.061C658.074 563.005 659.572 563.688 661.297 564.111C663.055 564.535 664.975 564.746 667.059 564.746C669.598 564.746 671.681 564.388 673.309 563.672C674.969 562.956 676.189 561.963 676.971 560.693C677.785 559.424 678.191 557.992 678.191 556.396ZM739.812 556.396C739.812 555.127 739.617 553.988 739.227 552.979C738.868 551.937 738.185 550.993 737.176 550.146C736.167 549.268 734.751 548.405 732.928 547.559C731.105 546.712 728.745 545.833 725.848 544.922C722.625 543.88 719.565 542.708 716.668 541.406C713.803 540.104 711.264 538.59 709.051 536.865C706.87 535.107 705.145 533.073 703.875 530.762C702.638 528.451 702.02 525.765 702.02 522.705C702.02 519.743 702.671 517.057 703.973 514.648C705.275 512.207 707.098 510.124 709.441 508.398C711.785 506.641 714.552 505.29 717.742 504.346C720.965 503.402 724.497 502.93 728.338 502.93C733.579 502.93 738.152 503.874 742.059 505.762C745.965 507.65 748.992 510.238 751.141 513.525C753.322 516.813 754.412 520.573 754.412 524.805H739.861C739.861 522.721 739.422 520.898 738.543 519.336C737.697 517.741 736.395 516.488 734.637 515.576C732.911 514.665 730.73 514.209 728.094 514.209C725.555 514.209 723.439 514.6 721.746 515.381C720.053 516.13 718.784 517.155 717.938 518.457C717.091 519.727 716.668 521.159 716.668 522.754C716.668 523.958 716.961 525.049 717.547 526.025C718.165 527.002 719.077 527.913 720.281 528.76C721.486 529.606 722.967 530.404 724.725 531.152C726.482 531.901 728.517 532.633 730.828 533.35C734.702 534.521 738.104 535.84 741.033 537.305C743.995 538.77 746.469 540.413 748.455 542.236C750.441 544.059 751.938 546.126 752.947 548.438C753.956 550.749 754.461 553.369 754.461 556.299C754.461 559.391 753.859 562.158 752.654 564.6C751.45 567.041 749.708 569.108 747.43 570.801C745.151 572.493 742.433 573.779 739.275 574.658C736.118 575.537 732.586 575.977 728.68 575.977C725.164 575.977 721.697 575.521 718.279 574.609C714.861 573.665 711.753 572.249 708.953 570.361C706.186 568.473 703.973 566.064 702.312 563.135C700.652 560.205 699.822 556.738 699.822 552.734H714.52C714.52 554.948 714.861 556.82 715.545 558.35C716.229 559.88 717.189 561.117 718.426 562.061C719.695 563.005 721.193 563.688 722.918 564.111C724.676 564.535 726.596 564.746 728.68 564.746C731.219 564.746 733.302 564.388 734.93 563.672C736.59 562.956 737.811 561.963 738.592 560.693C739.406 559.424 739.812 557.992 739.812 556.396ZM814.959 560.156L831.707 503.906H848.016L823.26 575H812.518L814.959 560.156ZM799.529 503.906L816.229 560.156L818.768 575H807.928L783.318 503.906H799.529ZM880.047 563.086V539.551C880.047 537.858 879.77 536.41 879.217 535.205C878.663 533.968 877.801 533.008 876.629 532.324C875.49 531.641 874.008 531.299 872.186 531.299C870.623 531.299 869.272 531.576 868.133 532.129C866.993 532.65 866.115 533.415 865.496 534.424C864.878 535.4 864.568 536.556 864.568 537.891H850.506C850.506 535.645 851.027 533.512 852.068 531.494C853.11 529.476 854.624 527.702 856.609 526.172C858.595 524.609 860.955 523.389 863.689 522.51C866.456 521.631 869.549 521.191 872.967 521.191C877.068 521.191 880.714 521.875 883.904 523.242C887.094 524.609 889.601 526.66 891.424 529.395C893.279 532.129 894.207 535.547 894.207 539.648V562.256C894.207 565.153 894.386 567.529 894.744 569.385C895.102 571.208 895.623 572.803 896.307 574.17V575H882.098C881.414 573.568 880.893 571.777 880.535 569.629C880.21 567.448 880.047 565.267 880.047 563.086ZM881.902 542.822L882 550.781H874.139C872.283 550.781 870.672 550.993 869.305 551.416C867.938 551.839 866.814 552.441 865.936 553.223C865.057 553.971 864.406 554.85 863.982 555.859C863.592 556.868 863.396 557.975 863.396 559.18C863.396 560.384 863.673 561.475 864.227 562.451C864.78 563.395 865.577 564.144 866.619 564.697C867.661 565.218 868.882 565.479 870.281 565.479C872.397 565.479 874.236 565.055 875.799 564.209C877.361 563.363 878.566 562.321 879.412 561.084C880.291 559.847 880.747 558.675 880.779 557.568L884.49 563.525C883.969 564.86 883.253 566.243 882.342 567.676C881.463 569.108 880.34 570.459 878.973 571.729C877.605 572.965 875.962 573.991 874.041 574.805C872.12 575.586 869.842 575.977 867.205 575.977C863.852 575.977 860.809 575.309 858.074 573.975C855.372 572.607 853.224 570.736 851.629 568.359C850.066 565.951 849.285 563.216 849.285 560.156C849.285 557.389 849.806 554.932 850.848 552.783C851.889 550.635 853.419 548.828 855.438 547.363C857.488 545.866 860.044 544.743 863.104 543.994C866.163 543.213 869.712 542.822 873.748 542.822H881.902ZM919.109 533.691V575H905.047V522.168H918.279L919.109 533.691ZM935.027 521.826L934.783 534.863C934.1 534.766 933.27 534.684 932.293 534.619C931.349 534.521 930.486 534.473 929.705 534.473C927.719 534.473 925.994 534.733 924.529 535.254C923.097 535.742 921.893 536.475 920.916 537.451C919.972 538.428 919.256 539.616 918.768 541.016C918.312 542.415 918.051 544.01 917.986 545.801L915.154 544.922C915.154 541.504 915.496 538.363 916.18 535.498C916.863 532.601 917.856 530.078 919.158 527.93C920.493 525.781 922.12 524.121 924.041 522.949C925.962 521.777 928.159 521.191 930.633 521.191C931.414 521.191 932.212 521.257 933.025 521.387C933.839 521.484 934.507 521.631 935.027 521.826ZM956.512 522.168V575H942.4V522.168H956.512ZM941.521 508.398C941.521 506.348 942.238 504.655 943.67 503.32C945.102 501.986 947.023 501.318 949.432 501.318C951.808 501.318 953.712 501.986 955.145 503.32C956.609 504.655 957.342 506.348 957.342 508.398C957.342 510.449 956.609 512.142 955.145 513.477C953.712 514.811 951.808 515.479 949.432 515.479C947.023 515.479 945.102 514.811 943.67 513.477C942.238 512.142 941.521 510.449 941.521 508.398ZM996.648 563.086V539.551C996.648 537.858 996.372 536.41 995.818 535.205C995.265 533.968 994.402 533.008 993.23 532.324C992.091 531.641 990.61 531.299 988.787 531.299C987.225 531.299 985.874 531.576 984.734 532.129C983.595 532.65 982.716 533.415 982.098 534.424C981.479 535.4 981.17 536.556 981.17 537.891H967.107C967.107 535.645 967.628 533.512 968.67 531.494C969.712 529.476 971.225 527.702 973.211 526.172C975.197 524.609 977.557 523.389 980.291 522.51C983.058 521.631 986.15 521.191 989.568 521.191C993.67 521.191 997.316 521.875 1000.51 523.242C1003.7 524.609 1006.2 526.66 1008.03 529.395C1009.88 532.129 1010.81 535.547 1010.81 539.648V562.256C1010.81 565.153 1010.99 567.529 1011.35 569.385C1011.7 571.208 1012.22 572.803 1012.91 574.17V575H998.699C998.016 573.568 997.495 571.777 997.137 569.629C996.811 567.448 996.648 565.267 996.648 563.086ZM998.504 542.822L998.602 550.781H990.74C988.885 550.781 987.273 550.993 985.906 551.416C984.539 551.839 983.416 552.441 982.537 553.223C981.658 553.971 981.007 554.85 980.584 555.859C980.193 556.868 979.998 557.975 979.998 559.18C979.998 560.384 980.275 561.475 980.828 562.451C981.382 563.395 982.179 564.144 983.221 564.697C984.262 565.218 985.483 565.479 986.883 565.479C988.999 565.479 990.838 565.055 992.4 564.209C993.963 563.363 995.167 562.321 996.014 561.084C996.893 559.847 997.348 558.675 997.381 557.568L1001.09 563.525C1000.57 564.86 999.855 566.243 998.943 567.676C998.064 569.108 996.941 570.459 995.574 571.729C994.207 572.965 992.563 573.991 990.643 574.805C988.722 575.586 986.443 575.977 983.807 575.977C980.454 575.977 977.41 575.309 974.676 573.975C971.974 572.607 969.826 570.736 968.23 568.359C966.668 565.951 965.887 563.216 965.887 560.156C965.887 557.389 966.408 554.932 967.449 552.783C968.491 550.635 970.021 548.828 972.039 547.363C974.09 545.866 976.645 544.743 979.705 543.994C982.765 543.213 986.313 542.822 990.35 542.822H998.504ZM1021.65 500H1035.71V562.891L1034.29 575H1021.65V500ZM1069.16 548.047V549.072C1069.16 553.011 1068.74 556.624 1067.89 559.912C1067.07 563.2 1065.81 566.048 1064.08 568.457C1062.35 570.833 1060.21 572.689 1057.63 574.023C1055.1 575.326 1052.1 575.977 1048.65 575.977C1045.43 575.977 1042.63 575.326 1040.25 574.023C1037.91 572.721 1035.94 570.882 1034.34 568.506C1032.75 566.13 1031.46 563.346 1030.49 560.156C1029.51 556.966 1028.78 553.483 1028.29 549.707V547.461C1028.78 543.685 1029.51 540.202 1030.49 537.012C1031.46 533.822 1032.75 531.038 1034.34 528.662C1035.94 526.286 1037.91 524.447 1040.25 523.145C1042.6 521.842 1045.36 521.191 1048.55 521.191C1052.04 521.191 1055.06 521.859 1057.63 523.193C1060.24 524.495 1062.39 526.351 1064.08 528.76C1065.81 531.136 1067.07 533.968 1067.89 537.256C1068.74 540.511 1069.16 544.108 1069.16 548.047ZM1055.1 549.072V548.047C1055.1 545.898 1054.93 543.88 1054.61 541.992C1054.31 540.072 1053.79 538.395 1053.04 536.963C1052.3 535.498 1051.27 534.342 1049.97 533.496C1048.7 532.65 1047.06 532.227 1045.04 532.227C1043.12 532.227 1041.49 532.552 1040.15 533.203C1038.82 533.854 1037.71 534.766 1036.83 535.938C1035.99 537.109 1035.35 538.509 1034.93 540.137C1034.51 541.732 1034.25 543.49 1034.15 545.41V551.807C1034.25 554.378 1034.67 556.657 1035.42 558.643C1036.2 560.596 1037.37 562.142 1038.93 563.281C1040.53 564.388 1042.6 564.941 1045.13 564.941C1047.12 564.941 1048.76 564.551 1050.07 563.77C1051.37 562.988 1052.38 561.882 1053.09 560.449C1053.84 559.017 1054.36 557.34 1054.66 555.42C1054.95 553.467 1055.1 551.351 1055.1 549.072ZM1092.74 500V575H1078.63V500H1092.74ZM1128.68 575.977C1124.58 575.977 1120.9 575.326 1117.64 574.023C1114.39 572.689 1111.62 570.85 1109.34 568.506C1107.1 566.162 1105.37 563.444 1104.17 560.352C1102.96 557.227 1102.36 553.906 1102.36 550.391V548.438C1102.36 544.434 1102.93 540.771 1104.07 537.451C1105.21 534.131 1106.84 531.25 1108.95 528.809C1111.1 526.367 1113.71 524.495 1116.77 523.193C1119.83 521.859 1123.28 521.191 1127.12 521.191C1130.86 521.191 1134.18 521.81 1137.08 523.047C1139.98 524.284 1142.4 526.042 1144.35 528.32C1146.34 530.599 1147.84 533.333 1148.85 536.523C1149.85 539.681 1150.36 543.197 1150.36 547.07V552.93H1108.37V543.555H1136.54V542.48C1136.54 540.527 1136.18 538.786 1135.47 537.256C1134.78 535.693 1133.74 534.456 1132.34 533.545C1130.94 532.633 1129.15 532.178 1126.97 532.178C1125.12 532.178 1123.52 532.585 1122.19 533.398C1120.85 534.212 1119.76 535.352 1118.91 536.816C1118.1 538.281 1117.48 540.007 1117.06 541.992C1116.67 543.945 1116.47 546.094 1116.47 548.438V550.391C1116.47 552.507 1116.77 554.46 1117.35 556.25C1117.97 558.04 1118.83 559.587 1119.94 560.889C1121.08 562.191 1122.45 563.2 1124.04 563.916C1125.67 564.632 1127.51 564.99 1129.56 564.99C1132.1 564.99 1134.46 564.502 1136.64 563.525C1138.85 562.516 1140.76 561.003 1142.35 558.984L1149.19 566.406C1148.08 568.001 1146.57 569.531 1144.65 570.996C1142.76 572.461 1140.48 573.665 1137.81 574.609C1135.14 575.521 1132.1 575.977 1128.68 575.977ZM1186.93 560.4C1186.93 559.391 1186.64 558.48 1186.05 557.666C1185.47 556.852 1184.38 556.104 1182.78 555.42C1181.22 554.704 1178.96 554.053 1175.99 553.467C1173.32 552.881 1170.83 552.148 1168.52 551.27C1166.24 550.358 1164.26 549.268 1162.57 547.998C1160.91 546.729 1159.6 545.231 1158.66 543.506C1157.72 541.748 1157.24 539.746 1157.24 537.5C1157.24 535.286 1157.72 533.203 1158.66 531.25C1159.64 529.297 1161.02 527.572 1162.81 526.074C1164.63 524.544 1166.85 523.356 1169.45 522.51C1172.09 521.631 1175.05 521.191 1178.34 521.191C1182.93 521.191 1186.87 521.924 1190.15 523.389C1193.47 524.854 1196.01 526.872 1197.77 529.443C1199.56 531.982 1200.46 534.88 1200.46 538.135H1186.39C1186.39 536.768 1186.1 535.547 1185.52 534.473C1184.96 533.366 1184.08 532.503 1182.88 531.885C1181.71 531.234 1180.18 530.908 1178.29 530.908C1176.73 530.908 1175.38 531.185 1174.24 531.738C1173.1 532.259 1172.22 532.975 1171.6 533.887C1171.01 534.766 1170.72 535.742 1170.72 536.816C1170.72 537.63 1170.88 538.363 1171.21 539.014C1171.57 539.632 1172.14 540.202 1172.92 540.723C1173.7 541.243 1174.71 541.732 1175.95 542.188C1177.21 542.611 1178.78 543.001 1180.63 543.359C1184.44 544.141 1187.84 545.166 1190.84 546.436C1193.83 547.673 1196.21 549.365 1197.97 551.514C1199.72 553.63 1200.6 556.413 1200.6 559.863C1200.6 562.207 1200.08 564.355 1199.04 566.309C1198 568.262 1196.5 569.971 1194.55 571.436C1192.6 572.868 1190.25 573.991 1187.52 574.805C1184.82 575.586 1181.77 575.977 1178.39 575.977C1173.47 575.977 1169.3 575.098 1165.89 573.34C1162.5 571.582 1159.93 569.352 1158.17 566.65C1156.45 563.916 1155.58 561.117 1155.58 558.252H1168.91C1168.98 560.173 1169.47 561.719 1170.38 562.891C1171.32 564.062 1172.51 564.909 1173.94 565.43C1175.41 565.951 1176.99 566.211 1178.68 566.211C1180.5 566.211 1182.02 565.967 1183.22 565.479C1184.43 564.958 1185.34 564.274 1185.96 563.428C1186.61 562.549 1186.93 561.54 1186.93 560.4ZM1276.73 551.416H1291.33C1291.03 556.201 1289.71 560.449 1287.37 564.16C1285.06 567.871 1281.82 570.768 1277.65 572.852C1273.52 574.935 1268.54 575.977 1262.71 575.977C1258.16 575.977 1254.07 575.195 1250.46 573.633C1246.84 572.038 1243.75 569.759 1241.18 566.797C1238.64 563.835 1236.7 560.254 1235.37 556.055C1234.03 551.855 1233.37 547.152 1233.37 541.943V537.012C1233.37 531.803 1234.05 527.1 1235.42 522.9C1236.82 518.669 1238.8 515.072 1241.38 512.109C1243.98 509.147 1247.09 506.868 1250.7 505.273C1254.31 503.678 1258.35 502.881 1262.81 502.881C1268.74 502.881 1273.73 503.955 1277.8 506.104C1281.9 508.252 1285.08 511.214 1287.32 514.99C1289.6 518.766 1290.97 523.063 1291.42 527.881H1276.78C1276.61 525.016 1276.04 522.591 1275.07 520.605C1274.09 518.587 1272.61 517.074 1270.62 516.064C1268.67 515.023 1266.07 514.502 1262.81 514.502C1260.37 514.502 1258.24 514.958 1256.41 515.869C1254.59 516.781 1253.06 518.164 1251.82 520.02C1250.59 521.875 1249.66 524.219 1249.04 527.051C1248.46 529.85 1248.16 533.138 1248.16 536.914V541.943C1248.16 545.622 1248.44 548.861 1248.99 551.66C1249.55 554.427 1250.39 556.771 1251.53 558.691C1252.7 560.579 1254.2 562.012 1256.02 562.988C1257.88 563.932 1260.11 564.404 1262.71 564.404C1265.77 564.404 1268.3 563.916 1270.28 562.939C1272.27 561.963 1273.78 560.514 1274.82 558.594C1275.9 556.673 1276.53 554.281 1276.73 551.416ZM1297.82 549.121V548.096C1297.82 544.222 1298.37 540.658 1299.48 537.402C1300.59 534.115 1302.2 531.266 1304.31 528.857C1306.43 526.449 1309.03 524.577 1312.13 523.242C1315.22 521.875 1318.77 521.191 1322.77 521.191C1326.78 521.191 1330.34 521.875 1333.46 523.242C1336.59 524.577 1339.21 526.449 1341.33 528.857C1343.47 531.266 1345.1 534.115 1346.21 537.402C1347.32 540.658 1347.87 544.222 1347.87 548.096V549.121C1347.87 552.962 1347.32 556.527 1346.21 559.814C1345.1 563.07 1343.47 565.918 1341.33 568.359C1339.21 570.768 1336.61 572.64 1333.51 573.975C1330.42 575.309 1326.87 575.977 1322.87 575.977C1318.87 575.977 1315.3 575.309 1312.18 573.975C1309.08 572.64 1306.46 570.768 1304.31 568.359C1302.2 565.918 1300.59 563.07 1299.48 559.814C1298.37 556.527 1297.82 552.962 1297.82 549.121ZM1311.88 548.096V549.121C1311.88 551.335 1312.08 553.402 1312.47 555.322C1312.86 557.243 1313.48 558.936 1314.32 560.4C1315.2 561.833 1316.34 562.956 1317.74 563.77C1319.14 564.583 1320.85 564.99 1322.87 564.99C1324.82 564.99 1326.5 564.583 1327.9 563.77C1329.3 562.956 1330.42 561.833 1331.27 560.4C1332.11 558.936 1332.73 557.243 1333.12 555.322C1333.55 553.402 1333.76 551.335 1333.76 549.121V548.096C1333.76 545.947 1333.55 543.929 1333.12 542.041C1332.73 540.12 1332.1 538.428 1331.22 536.963C1330.37 535.465 1329.25 534.294 1327.85 533.447C1326.45 532.601 1324.76 532.178 1322.77 532.178C1320.79 532.178 1319.09 532.601 1317.69 533.447C1316.33 534.294 1315.2 535.465 1314.32 536.963C1313.48 538.428 1312.86 540.12 1312.47 542.041C1312.08 543.929 1311.88 545.947 1311.88 548.096ZM1371.36 500V575H1357.24V500H1371.36ZM1380.73 549.121V548.096C1380.73 544.222 1381.28 540.658 1382.39 537.402C1383.5 534.115 1385.11 531.266 1387.22 528.857C1389.34 526.449 1391.94 524.577 1395.04 523.242C1398.13 521.875 1401.68 521.191 1405.68 521.191C1409.69 521.191 1413.25 521.875 1416.38 523.242C1419.5 524.577 1422.12 526.449 1424.24 528.857C1426.38 531.266 1428.01 534.115 1429.12 537.402C1430.23 540.658 1430.78 544.222 1430.78 548.096V549.121C1430.78 552.962 1430.23 556.527 1429.12 559.814C1428.01 563.07 1426.38 565.918 1424.24 568.359C1422.12 570.768 1419.52 572.64 1416.42 573.975C1413.33 575.309 1409.78 575.977 1405.78 575.977C1401.78 575.977 1398.21 575.309 1395.09 573.975C1391.99 572.64 1389.37 570.768 1387.22 568.359C1385.11 565.918 1383.5 563.07 1382.39 559.814C1381.28 556.527 1380.73 552.962 1380.73 549.121ZM1394.79 548.096V549.121C1394.79 551.335 1394.99 553.402 1395.38 555.322C1395.77 557.243 1396.39 558.936 1397.23 560.4C1398.11 561.833 1399.25 562.956 1400.65 563.77C1402.05 564.583 1403.76 564.99 1405.78 564.99C1407.73 564.99 1409.41 564.583 1410.81 563.77C1412.21 562.956 1413.33 561.833 1414.18 560.4C1415.02 558.936 1415.64 557.243 1416.03 555.322C1416.46 553.402 1416.67 551.335 1416.67 549.121V548.096C1416.67 545.947 1416.46 543.929 1416.03 542.041C1415.64 540.12 1415.01 538.428 1414.13 536.963C1413.28 535.465 1412.16 534.294 1410.76 533.447C1409.36 532.601 1407.67 532.178 1405.68 532.178C1403.7 532.178 1402 532.601 1400.6 533.447C1399.24 534.294 1398.11 535.465 1397.23 536.963C1396.39 538.428 1395.77 540.12 1395.38 542.041C1394.99 543.929 1394.79 545.947 1394.79 548.096ZM1453.48 533.691V575H1439.42V522.168H1452.65L1453.48 533.691ZM1469.4 521.826L1469.16 534.863C1468.47 534.766 1467.64 534.684 1466.67 534.619C1465.72 534.521 1464.86 534.473 1464.08 534.473C1462.09 534.473 1460.37 534.733 1458.9 535.254C1457.47 535.742 1456.27 536.475 1455.29 537.451C1454.35 538.428 1453.63 539.616 1453.14 541.016C1452.69 542.415 1452.43 544.01 1452.36 545.801L1449.53 544.922C1449.53 541.504 1449.87 538.363 1450.55 535.498C1451.24 532.601 1452.23 530.078 1453.53 527.93C1454.87 525.781 1456.5 524.121 1458.42 522.949C1460.34 521.777 1462.53 521.191 1465.01 521.191C1465.79 521.191 1466.59 521.257 1467.4 521.387C1468.21 521.484 1468.88 521.631 1469.4 521.826ZM1490.89 522.168V575H1476.78V522.168H1490.89ZM1475.9 508.398C1475.9 506.348 1476.61 504.655 1478.04 503.32C1479.48 501.986 1481.4 501.318 1483.81 501.318C1486.18 501.318 1488.09 501.986 1489.52 503.32C1490.98 504.655 1491.72 506.348 1491.72 508.398C1491.72 510.449 1490.98 512.142 1489.52 513.477C1488.09 514.811 1486.18 515.479 1483.81 515.479C1481.4 515.479 1479.48 514.811 1478.04 513.477C1476.61 512.142 1475.9 510.449 1475.9 508.398ZM1544.55 564.014V575H1504.41V564.014H1544.55ZM1543.77 530.273L1510.08 575H1500.65V566.65L1534.2 522.168H1543.77V530.273ZM1538.79 522.168V533.203H1501.43V522.168H1538.79ZM1576.92 575.977C1572.82 575.977 1569.14 575.326 1565.89 574.023C1562.63 572.689 1559.86 570.85 1557.59 568.506C1555.34 566.162 1553.61 563.444 1552.41 560.352C1551.21 557.227 1550.6 553.906 1550.6 550.391V548.438C1550.6 544.434 1551.17 540.771 1552.31 537.451C1553.45 534.131 1555.08 531.25 1557.2 528.809C1559.34 526.367 1561.95 524.495 1565.01 523.193C1568.07 521.859 1571.52 521.191 1575.36 521.191C1579.1 521.191 1582.42 521.81 1585.32 523.047C1588.22 524.284 1590.64 526.042 1592.6 528.32C1594.58 530.599 1596.08 533.333 1597.09 536.523C1598.1 539.681 1598.6 543.197 1598.6 547.07V552.93H1556.61V543.555H1584.78V542.48C1584.78 540.527 1584.43 538.786 1583.71 537.256C1583.03 535.693 1581.98 534.456 1580.58 533.545C1579.18 532.633 1577.39 532.178 1575.21 532.178C1573.36 532.178 1571.76 532.585 1570.43 533.398C1569.09 534.212 1568 535.352 1567.16 536.816C1566.34 538.281 1565.72 540.007 1565.3 541.992C1564.91 543.945 1564.71 546.094 1564.71 548.438V550.391C1564.71 552.507 1565.01 554.46 1565.59 556.25C1566.21 558.04 1567.07 559.587 1568.18 560.889C1569.32 562.191 1570.69 563.2 1572.28 563.916C1573.91 564.632 1575.75 564.99 1577.8 564.99C1580.34 564.99 1582.7 564.502 1584.88 563.525C1587.09 562.516 1589 561.003 1590.59 558.984L1597.43 566.406C1596.32 568.001 1594.81 569.531 1592.89 570.996C1591 572.461 1588.72 573.665 1586.05 574.609C1583.38 575.521 1580.34 575.977 1576.92 575.977ZM1620.67 533.691V575H1606.61V522.168H1619.84L1620.67 533.691ZM1636.59 521.826L1636.35 534.863C1635.66 534.766 1634.83 534.684 1633.86 534.619C1632.91 534.521 1632.05 534.473 1631.27 534.473C1629.28 534.473 1627.56 534.733 1626.09 535.254C1624.66 535.742 1623.46 536.475 1622.48 537.451C1621.53 538.428 1620.82 539.616 1620.33 541.016C1619.87 542.415 1619.61 544.01 1619.55 545.801L1616.72 544.922C1616.72 541.504 1617.06 538.363 1617.74 535.498C1618.43 532.601 1619.42 530.078 1620.72 527.93C1622.06 525.781 1623.68 524.121 1625.6 522.949C1627.52 521.777 1629.72 521.191 1632.2 521.191C1632.98 521.191 1633.77 521.257 1634.59 521.387C1635.4 521.484 1636.07 521.631 1636.59 521.826Z" fill="black" style="fill:black;fill-opacity:1;"/>
</svg>
