<svg width="968" height="548" viewBox="0 0 968 548" fill="none" xmlns="http://www.w3.org/2000/svg">
<g filter="url(#filter0_d_4_36)">
<rect width="960" height="540" transform="translate(4)" fill="white" style="fill:white;fill-opacity:1;"/>
<path d="M168.779 275.208H176.079C175.933 277.601 175.273 279.725 174.102 281.58C172.946 283.436 171.326 284.884 169.243 285.926C167.176 286.967 164.686 287.488 161.772 287.488C159.494 287.488 157.451 287.098 155.645 286.316C153.838 285.519 152.292 284.38 151.006 282.898C149.736 281.417 148.768 279.627 148.101 277.527C147.433 275.428 147.1 273.076 147.1 270.472V268.006C147.1 265.402 147.441 263.05 148.125 260.95C148.825 258.834 149.818 257.036 151.104 255.555C152.406 254.074 153.96 252.934 155.767 252.137C157.573 251.339 159.591 250.94 161.821 250.94C164.784 250.94 167.282 251.478 169.316 252.552C171.367 253.626 172.954 255.107 174.077 256.995C175.216 258.883 175.9 261.032 176.128 263.44H168.804C168.722 262.008 168.438 260.796 167.949 259.803C167.461 258.794 166.72 258.037 165.728 257.532C164.751 257.011 163.449 256.751 161.821 256.751C160.601 256.751 159.535 256.979 158.623 257.435C157.712 257.89 156.947 258.582 156.328 259.51C155.71 260.438 155.246 261.609 154.937 263.025C154.644 264.425 154.497 266.069 154.497 267.957V270.472C154.497 272.311 154.635 273.93 154.912 275.33C155.189 276.714 155.612 277.885 156.182 278.846C156.768 279.79 157.516 280.506 158.428 280.994C159.355 281.466 160.47 281.702 161.772 281.702C163.302 281.702 164.564 281.458 165.557 280.97C166.549 280.481 167.306 279.757 167.827 278.797C168.364 277.837 168.682 276.64 168.779 275.208ZM199.395 277.698C199.395 277.063 199.297 276.494 199.102 275.989C198.923 275.468 198.581 274.996 198.076 274.573C197.572 274.134 196.864 273.702 195.952 273.279C195.041 272.856 193.861 272.417 192.412 271.961C190.801 271.44 189.271 270.854 187.822 270.203C186.39 269.552 185.12 268.795 184.014 267.933C182.923 267.054 182.061 266.036 181.426 264.881C180.807 263.725 180.498 262.382 180.498 260.853C180.498 259.371 180.824 258.029 181.475 256.824C182.126 255.604 183.037 254.562 184.209 253.699C185.381 252.82 186.764 252.145 188.359 251.673C189.971 251.201 191.737 250.965 193.657 250.965C196.278 250.965 198.564 251.437 200.518 252.381C202.471 253.325 203.984 254.619 205.059 256.263C206.149 257.907 206.694 259.786 206.694 261.902H199.419C199.419 260.861 199.199 259.949 198.76 259.168C198.337 258.37 197.686 257.744 196.807 257.288C195.944 256.832 194.854 256.604 193.535 256.604C192.266 256.604 191.208 256.8 190.361 257.19C189.515 257.565 188.88 258.077 188.457 258.729C188.034 259.363 187.822 260.079 187.822 260.877C187.822 261.479 187.969 262.024 188.262 262.513C188.571 263.001 189.027 263.457 189.629 263.88C190.231 264.303 190.972 264.702 191.851 265.076C192.729 265.451 193.747 265.817 194.902 266.175C196.839 266.761 198.54 267.42 200.005 268.152C201.486 268.885 202.723 269.707 203.716 270.618C204.709 271.53 205.457 272.563 205.962 273.719C206.466 274.874 206.719 276.185 206.719 277.649C206.719 279.196 206.418 280.579 205.815 281.8C205.213 283.021 204.342 284.054 203.203 284.9C202.064 285.747 200.705 286.39 199.126 286.829C197.547 287.269 195.781 287.488 193.828 287.488C192.07 287.488 190.337 287.26 188.628 286.805C186.919 286.333 185.365 285.625 183.965 284.681C182.581 283.737 181.475 282.532 180.645 281.067C179.814 279.603 179.399 277.869 179.399 275.867H186.748C186.748 276.974 186.919 277.91 187.261 278.675C187.603 279.44 188.083 280.058 188.701 280.53C189.336 281.002 190.085 281.344 190.947 281.556C191.826 281.767 192.786 281.873 193.828 281.873C195.098 281.873 196.139 281.694 196.953 281.336C197.783 280.978 198.394 280.481 198.784 279.847C199.191 279.212 199.395 278.496 199.395 277.698ZM230.205 277.698C230.205 277.063 230.107 276.494 229.912 275.989C229.733 275.468 229.391 274.996 228.887 274.573C228.382 274.134 227.674 273.702 226.763 273.279C225.851 272.856 224.671 272.417 223.223 271.961C221.611 271.44 220.081 270.854 218.633 270.203C217.201 269.552 215.931 268.795 214.824 267.933C213.734 267.054 212.871 266.036 212.236 264.881C211.618 263.725 211.309 262.382 211.309 260.853C211.309 259.371 211.634 258.029 212.285 256.824C212.936 255.604 213.848 254.562 215.02 253.699C216.191 252.82 217.575 252.145 219.17 251.673C220.781 251.201 222.547 250.965 224.468 250.965C227.088 250.965 229.375 251.437 231.328 252.381C233.281 253.325 234.795 254.619 235.869 256.263C236.96 257.907 237.505 259.786 237.505 261.902H230.229C230.229 260.861 230.01 259.949 229.57 259.168C229.147 258.37 228.496 257.744 227.617 257.288C226.755 256.832 225.664 256.604 224.346 256.604C223.076 256.604 222.018 256.8 221.172 257.19C220.326 257.565 219.691 258.077 219.268 258.729C218.844 259.363 218.633 260.079 218.633 260.877C218.633 261.479 218.779 262.024 219.072 262.513C219.382 263.001 219.837 263.457 220.439 263.88C221.042 264.303 221.782 264.702 222.661 265.076C223.54 265.451 224.557 265.817 225.713 266.175C227.65 266.761 229.351 267.42 230.815 268.152C232.297 268.885 233.534 269.707 234.526 270.618C235.519 271.53 236.268 272.563 236.772 273.719C237.277 274.874 237.529 276.185 237.529 277.649C237.529 279.196 237.228 280.579 236.626 281.8C236.024 283.021 235.153 284.054 234.014 284.9C232.874 285.747 231.515 286.39 229.937 286.829C228.358 287.269 226.592 287.488 224.639 287.488C222.881 287.488 221.147 287.26 219.438 286.805C217.729 286.333 216.175 285.625 214.775 284.681C213.392 283.737 212.285 282.532 211.455 281.067C210.625 279.603 210.21 277.869 210.21 275.867H217.559C217.559 276.974 217.729 277.91 218.071 278.675C218.413 279.44 218.893 280.058 219.512 280.53C220.146 281.002 220.895 281.344 221.758 281.556C222.637 281.767 223.597 281.873 224.639 281.873C225.908 281.873 226.95 281.694 227.764 281.336C228.594 280.978 229.204 280.481 229.595 279.847C230.002 279.212 230.205 278.496 230.205 277.698ZM257.256 251.453L244.219 290.052H238.994L252.031 251.453H257.256ZM279.57 277.698C279.57 277.063 279.473 276.494 279.277 275.989C279.098 275.468 278.757 274.996 278.252 274.573C277.747 274.134 277.039 273.702 276.128 273.279C275.216 272.856 274.036 272.417 272.588 271.961C270.977 271.44 269.447 270.854 267.998 270.203C266.566 269.552 265.296 268.795 264.189 267.933C263.099 267.054 262.236 266.036 261.602 264.881C260.983 263.725 260.674 262.382 260.674 260.853C260.674 259.371 260.999 258.029 261.65 256.824C262.301 255.604 263.213 254.562 264.385 253.699C265.557 252.82 266.94 252.145 268.535 251.673C270.146 251.201 271.912 250.965 273.833 250.965C276.453 250.965 278.74 251.437 280.693 252.381C282.646 253.325 284.16 254.619 285.234 256.263C286.325 257.907 286.87 259.786 286.87 261.902H279.595C279.595 260.861 279.375 259.949 278.936 259.168C278.512 258.37 277.861 257.744 276.982 257.288C276.12 256.832 275.029 256.604 273.711 256.604C272.441 256.604 271.383 256.8 270.537 257.19C269.691 257.565 269.056 258.077 268.633 258.729C268.21 259.363 267.998 260.079 267.998 260.877C267.998 261.479 268.145 262.024 268.438 262.513C268.747 263.001 269.202 263.457 269.805 263.88C270.407 264.303 271.147 264.702 272.026 265.076C272.905 265.451 273.923 265.817 275.078 266.175C277.015 266.761 278.716 267.42 280.181 268.152C281.662 268.885 282.899 269.707 283.892 270.618C284.884 271.53 285.633 272.563 286.138 273.719C286.642 274.874 286.895 276.185 286.895 277.649C286.895 279.196 286.593 280.579 285.991 281.8C285.389 283.021 284.518 284.054 283.379 284.9C282.24 285.747 280.881 286.39 279.302 286.829C277.723 287.269 275.957 287.488 274.004 287.488C272.246 287.488 270.513 287.26 268.804 286.805C267.095 286.333 265.54 285.625 264.141 284.681C262.757 283.737 261.65 282.532 260.82 281.067C259.99 279.603 259.575 277.869 259.575 275.867H266.924C266.924 276.974 267.095 277.91 267.437 278.675C267.778 279.44 268.258 280.058 268.877 280.53C269.512 281.002 270.26 281.344 271.123 281.556C272.002 281.767 272.962 281.873 274.004 281.873C275.273 281.873 276.315 281.694 277.129 281.336C277.959 280.978 278.569 280.481 278.96 279.847C279.367 279.212 279.57 278.496 279.57 277.698ZM312.48 275.208H319.78C319.634 277.601 318.975 279.725 317.803 281.58C316.647 283.436 315.028 284.884 312.944 285.926C310.877 286.967 308.387 287.488 305.474 287.488C303.195 287.488 301.152 287.098 299.346 286.316C297.539 285.519 295.993 284.38 294.707 282.898C293.438 281.417 292.469 279.627 291.802 277.527C291.134 275.428 290.801 273.076 290.801 270.472V268.006C290.801 265.402 291.143 263.05 291.826 260.95C292.526 258.834 293.519 257.036 294.805 255.555C296.107 254.074 297.661 252.934 299.468 252.137C301.274 251.339 303.293 250.94 305.522 250.94C308.485 250.94 310.983 251.478 313.018 252.552C315.068 253.626 316.655 255.107 317.778 256.995C318.918 258.883 319.601 261.032 319.829 263.44H312.505C312.424 262.008 312.139 260.796 311.65 259.803C311.162 258.794 310.422 258.037 309.429 257.532C308.452 257.011 307.15 256.751 305.522 256.751C304.302 256.751 303.236 256.979 302.324 257.435C301.413 257.89 300.648 258.582 300.029 259.51C299.411 260.438 298.947 261.609 298.638 263.025C298.345 264.425 298.198 266.069 298.198 267.957V270.472C298.198 272.311 298.337 273.93 298.613 275.33C298.89 276.714 299.313 277.885 299.883 278.846C300.469 279.79 301.217 280.506 302.129 280.994C303.057 281.466 304.172 281.702 305.474 281.702C307.004 281.702 308.265 281.458 309.258 280.97C310.251 280.481 311.007 279.757 311.528 278.797C312.065 277.837 312.383 276.64 312.48 275.208ZM343.096 277.698C343.096 277.063 342.998 276.494 342.803 275.989C342.624 275.468 342.282 274.996 341.777 274.573C341.273 274.134 340.565 273.702 339.653 273.279C338.742 272.856 337.562 272.417 336.113 271.961C334.502 271.44 332.972 270.854 331.523 270.203C330.091 269.552 328.822 268.795 327.715 267.933C326.624 267.054 325.762 266.036 325.127 264.881C324.508 263.725 324.199 262.382 324.199 260.853C324.199 259.371 324.525 258.029 325.176 256.824C325.827 255.604 326.738 254.562 327.91 253.699C329.082 252.82 330.465 252.145 332.061 251.673C333.672 251.201 335.438 250.965 337.358 250.965C339.979 250.965 342.266 251.437 344.219 252.381C346.172 253.325 347.686 254.619 348.76 256.263C349.85 257.907 350.396 259.786 350.396 261.902H343.12C343.12 260.861 342.9 259.949 342.461 259.168C342.038 258.37 341.387 257.744 340.508 257.288C339.645 256.832 338.555 256.604 337.236 256.604C335.967 256.604 334.909 256.8 334.062 257.19C333.216 257.565 332.581 258.077 332.158 258.729C331.735 259.363 331.523 260.079 331.523 260.877C331.523 261.479 331.67 262.024 331.963 262.513C332.272 263.001 332.728 263.457 333.33 263.88C333.932 264.303 334.673 264.702 335.552 265.076C336.431 265.451 337.448 265.817 338.604 266.175C340.54 266.761 342.241 267.42 343.706 268.152C345.187 268.885 346.424 269.707 347.417 270.618C348.41 271.53 349.159 272.563 349.663 273.719C350.168 274.874 350.42 276.185 350.42 277.649C350.42 279.196 350.119 280.579 349.517 281.8C348.914 283.021 348.044 284.054 346.904 284.9C345.765 285.747 344.406 286.39 342.827 286.829C341.248 287.269 339.482 287.488 337.529 287.488C335.771 287.488 334.038 287.26 332.329 286.805C330.62 286.333 329.066 285.625 327.666 284.681C326.283 283.737 325.176 282.532 324.346 281.067C323.516 279.603 323.101 277.869 323.101 275.867H330.449C330.449 276.974 330.62 277.91 330.962 278.675C331.304 279.44 331.784 280.058 332.402 280.53C333.037 281.002 333.786 281.344 334.648 281.556C335.527 281.767 336.488 281.873 337.529 281.873C338.799 281.873 339.84 281.694 340.654 281.336C341.484 280.978 342.095 280.481 342.485 279.847C342.892 279.212 343.096 278.496 343.096 277.698ZM373.906 277.698C373.906 277.063 373.809 276.494 373.613 275.989C373.434 275.468 373.092 274.996 372.588 274.573C372.083 274.134 371.375 273.702 370.464 273.279C369.552 272.856 368.372 272.417 366.924 271.961C365.312 271.44 363.783 270.854 362.334 270.203C360.902 269.552 359.632 268.795 358.525 267.933C357.435 267.054 356.572 266.036 355.938 264.881C355.319 263.725 355.01 262.382 355.01 260.853C355.01 259.371 355.335 258.029 355.986 256.824C356.637 255.604 357.549 254.562 358.721 253.699C359.893 252.82 361.276 252.145 362.871 251.673C364.482 251.201 366.248 250.965 368.169 250.965C370.789 250.965 373.076 251.437 375.029 252.381C376.982 253.325 378.496 254.619 379.57 256.263C380.661 257.907 381.206 259.786 381.206 261.902H373.931C373.931 260.861 373.711 259.949 373.271 259.168C372.848 258.37 372.197 257.744 371.318 257.288C370.456 256.832 369.365 256.604 368.047 256.604C366.777 256.604 365.719 256.8 364.873 257.19C364.027 257.565 363.392 258.077 362.969 258.729C362.546 259.363 362.334 260.079 362.334 260.877C362.334 261.479 362.48 262.024 362.773 262.513C363.083 263.001 363.538 263.457 364.141 263.88C364.743 264.303 365.483 264.702 366.362 265.076C367.241 265.451 368.258 265.817 369.414 266.175C371.351 266.761 373.052 267.42 374.517 268.152C375.998 268.885 377.235 269.707 378.228 270.618C379.22 271.53 379.969 272.563 380.474 273.719C380.978 274.874 381.23 276.185 381.23 277.649C381.23 279.196 380.929 280.579 380.327 281.8C379.725 283.021 378.854 284.054 377.715 284.9C376.576 285.747 375.216 286.39 373.638 286.829C372.059 287.269 370.293 287.488 368.34 287.488C366.582 287.488 364.849 287.26 363.14 286.805C361.431 286.333 359.876 285.625 358.477 284.681C357.093 283.737 355.986 282.532 355.156 281.067C354.326 279.603 353.911 277.869 353.911 275.867H361.26C361.26 276.974 361.431 277.91 361.772 278.675C362.114 279.44 362.594 280.058 363.213 280.53C363.848 281.002 364.596 281.344 365.459 281.556C366.338 281.767 367.298 281.873 368.34 281.873C369.609 281.873 370.651 281.694 371.465 281.336C372.295 280.978 372.905 280.481 373.296 279.847C373.703 279.212 373.906 278.496 373.906 277.698ZM411.479 279.578L419.854 251.453H428.008L415.63 287H410.259L411.479 279.578ZM403.765 251.453L412.114 279.578L413.384 287H407.964L395.659 251.453H403.765ZM444.023 281.043V269.275C444.023 268.429 443.885 267.705 443.608 267.103C443.332 266.484 442.9 266.004 442.314 265.662C441.745 265.32 441.004 265.149 440.093 265.149C439.312 265.149 438.636 265.288 438.066 265.564C437.497 265.825 437.057 266.207 436.748 266.712C436.439 267.2 436.284 267.778 436.284 268.445H429.253C429.253 267.322 429.513 266.256 430.034 265.247C430.555 264.238 431.312 263.351 432.305 262.586C433.298 261.805 434.478 261.194 435.845 260.755C437.228 260.315 438.774 260.096 440.483 260.096C442.534 260.096 444.357 260.438 445.952 261.121C447.547 261.805 448.8 262.83 449.712 264.197C450.64 265.564 451.104 267.273 451.104 269.324V280.628C451.104 282.076 451.193 283.265 451.372 284.192C451.551 285.104 451.812 285.901 452.153 286.585V287H445.049C444.707 286.284 444.447 285.389 444.268 284.314C444.105 283.224 444.023 282.133 444.023 281.043ZM444.951 270.911L445 274.891H441.069C440.142 274.891 439.336 274.996 438.652 275.208C437.969 275.42 437.407 275.721 436.968 276.111C436.528 276.486 436.203 276.925 435.991 277.43C435.796 277.934 435.698 278.488 435.698 279.09C435.698 279.692 435.837 280.237 436.113 280.726C436.39 281.198 436.789 281.572 437.31 281.849C437.83 282.109 438.441 282.239 439.141 282.239C440.199 282.239 441.118 282.028 441.899 281.604C442.681 281.181 443.283 280.66 443.706 280.042C444.146 279.424 444.373 278.838 444.39 278.284L446.245 281.263C445.985 281.93 445.627 282.622 445.171 283.338C444.731 284.054 444.17 284.729 443.486 285.364C442.803 285.983 441.981 286.495 441.021 286.902C440.06 287.293 438.921 287.488 437.603 287.488C435.926 287.488 434.404 287.155 433.037 286.487C431.686 285.804 430.612 284.868 429.814 283.68C429.033 282.475 428.643 281.108 428.643 279.578C428.643 278.195 428.903 276.966 429.424 275.892C429.945 274.817 430.71 273.914 431.719 273.182C432.744 272.433 434.022 271.871 435.552 271.497C437.082 271.106 438.856 270.911 440.874 270.911H444.951ZM463.555 266.346V287H456.523V260.584H463.14L463.555 266.346ZM471.514 260.413L471.392 266.932C471.05 266.883 470.635 266.842 470.146 266.81C469.674 266.761 469.243 266.736 468.853 266.736C467.86 266.736 466.997 266.867 466.265 267.127C465.549 267.371 464.946 267.737 464.458 268.226C463.986 268.714 463.628 269.308 463.384 270.008C463.156 270.708 463.026 271.505 462.993 272.4L461.577 271.961C461.577 270.252 461.748 268.681 462.09 267.249C462.432 265.8 462.928 264.539 463.579 263.465C464.246 262.391 465.06 261.561 466.021 260.975C466.981 260.389 468.079 260.096 469.316 260.096C469.707 260.096 470.106 260.128 470.513 260.193C470.92 260.242 471.253 260.315 471.514 260.413ZM482.256 260.584V287H475.2V260.584H482.256ZM474.761 253.699C474.761 252.674 475.119 251.827 475.835 251.16C476.551 250.493 477.511 250.159 478.716 250.159C479.904 250.159 480.856 250.493 481.572 251.16C482.305 251.827 482.671 252.674 482.671 253.699C482.671 254.725 482.305 255.571 481.572 256.238C480.856 256.906 479.904 257.239 478.716 257.239C477.511 257.239 476.551 256.906 475.835 256.238C475.119 255.571 474.761 254.725 474.761 253.699ZM502.324 281.043V269.275C502.324 268.429 502.186 267.705 501.909 267.103C501.632 266.484 501.201 266.004 500.615 265.662C500.046 265.32 499.305 265.149 498.394 265.149C497.612 265.149 496.937 265.288 496.367 265.564C495.798 265.825 495.358 266.207 495.049 266.712C494.74 267.2 494.585 267.778 494.585 268.445H487.554C487.554 267.322 487.814 266.256 488.335 265.247C488.856 264.238 489.613 263.351 490.605 262.586C491.598 261.805 492.778 261.194 494.146 260.755C495.529 260.315 497.075 260.096 498.784 260.096C500.835 260.096 502.658 260.438 504.253 261.121C505.848 261.805 507.101 262.83 508.013 264.197C508.94 265.564 509.404 267.273 509.404 269.324V280.628C509.404 282.076 509.494 283.265 509.673 284.192C509.852 285.104 510.112 285.901 510.454 286.585V287H503.35C503.008 286.284 502.747 285.389 502.568 284.314C502.406 283.224 502.324 282.133 502.324 281.043ZM503.252 270.911L503.301 274.891H499.37C498.442 274.891 497.637 274.996 496.953 275.208C496.27 275.42 495.708 275.721 495.269 276.111C494.829 276.486 494.504 276.925 494.292 277.43C494.097 277.934 493.999 278.488 493.999 279.09C493.999 279.692 494.137 280.237 494.414 280.726C494.691 281.198 495.09 281.572 495.61 281.849C496.131 282.109 496.742 282.239 497.441 282.239C498.499 282.239 499.419 282.028 500.2 281.604C500.981 281.181 501.584 280.66 502.007 280.042C502.446 279.424 502.674 278.838 502.69 278.284L504.546 281.263C504.285 281.93 503.927 282.622 503.472 283.338C503.032 284.054 502.471 284.729 501.787 285.364C501.104 285.983 500.282 286.495 499.321 286.902C498.361 287.293 497.222 287.488 495.903 287.488C494.227 287.488 492.705 287.155 491.338 286.487C489.987 285.804 488.913 284.868 488.115 283.68C487.334 282.475 486.943 281.108 486.943 279.578C486.943 278.195 487.204 276.966 487.725 275.892C488.245 274.817 489.01 273.914 490.02 273.182C491.045 272.433 492.323 271.871 493.853 271.497C495.382 271.106 497.157 270.911 499.175 270.911H503.252ZM514.824 249.5H521.855V280.945L521.147 287H514.824V249.5ZM538.579 273.523V274.036C538.579 276.006 538.368 277.812 537.944 279.456C537.537 281.1 536.903 282.524 536.04 283.729C535.177 284.917 534.103 285.844 532.817 286.512C531.548 287.163 530.05 287.488 528.325 287.488C526.714 287.488 525.314 287.163 524.126 286.512C522.954 285.861 521.969 284.941 521.172 283.753C520.374 282.565 519.731 281.173 519.243 279.578C518.755 277.983 518.389 276.242 518.145 274.354V273.23C518.389 271.342 518.755 269.601 519.243 268.006C519.731 266.411 520.374 265.019 521.172 263.831C521.969 262.643 522.954 261.723 524.126 261.072C525.298 260.421 526.681 260.096 528.276 260.096C530.018 260.096 531.532 260.429 532.817 261.097C534.119 261.748 535.194 262.675 536.04 263.88C536.903 265.068 537.537 266.484 537.944 268.128C538.368 269.756 538.579 271.554 538.579 273.523ZM531.548 274.036V273.523C531.548 272.449 531.466 271.44 531.304 270.496C531.157 269.536 530.897 268.698 530.522 267.981C530.148 267.249 529.635 266.671 528.984 266.248C528.35 265.825 527.528 265.613 526.519 265.613C525.558 265.613 524.744 265.776 524.077 266.102C523.41 266.427 522.856 266.883 522.417 267.469C521.994 268.055 521.676 268.755 521.465 269.568C521.253 270.366 521.123 271.245 521.074 272.205V275.403C521.123 276.689 521.335 277.828 521.709 278.821C522.1 279.798 522.686 280.571 523.467 281.141C524.264 281.694 525.298 281.971 526.567 281.971C527.56 281.971 528.382 281.775 529.033 281.385C529.684 280.994 530.189 280.441 530.547 279.725C530.921 279.008 531.182 278.17 531.328 277.21C531.475 276.233 531.548 275.175 531.548 274.036ZM550.371 249.5V287H543.315V249.5H550.371ZM568.34 287.488C566.289 287.488 564.45 287.163 562.822 286.512C561.195 285.844 559.811 284.925 558.672 283.753C557.549 282.581 556.686 281.222 556.084 279.676C555.482 278.113 555.181 276.453 555.181 274.695V273.719C555.181 271.717 555.465 269.886 556.035 268.226C556.605 266.565 557.419 265.125 558.477 263.904C559.551 262.684 560.853 261.748 562.383 261.097C563.913 260.429 565.638 260.096 567.559 260.096C569.43 260.096 571.09 260.405 572.539 261.023C573.988 261.642 575.2 262.521 576.177 263.66C577.17 264.799 577.918 266.167 578.423 267.762C578.927 269.34 579.18 271.098 579.18 273.035V275.965H558.184V271.277H572.271V270.74C572.271 269.764 572.091 268.893 571.733 268.128C571.392 267.347 570.871 266.728 570.171 266.272C569.471 265.817 568.576 265.589 567.485 265.589C566.558 265.589 565.76 265.792 565.093 266.199C564.425 266.606 563.88 267.176 563.457 267.908C563.05 268.641 562.741 269.503 562.529 270.496C562.334 271.473 562.236 272.547 562.236 273.719V274.695C562.236 275.753 562.383 276.73 562.676 277.625C562.985 278.52 563.416 279.293 563.97 279.944C564.539 280.595 565.223 281.1 566.021 281.458C566.834 281.816 567.754 281.995 568.779 281.995C570.049 281.995 571.229 281.751 572.319 281.263C573.426 280.758 574.378 280.001 575.176 278.992L578.594 282.703C578.04 283.501 577.284 284.266 576.323 284.998C575.379 285.73 574.24 286.333 572.905 286.805C571.571 287.26 570.049 287.488 568.34 287.488ZM597.466 279.7C597.466 279.196 597.319 278.74 597.026 278.333C596.733 277.926 596.188 277.552 595.391 277.21C594.609 276.852 593.478 276.526 591.997 276.233C590.662 275.94 589.417 275.574 588.262 275.135C587.122 274.679 586.13 274.134 585.283 273.499C584.453 272.864 583.802 272.116 583.33 271.253C582.858 270.374 582.622 269.373 582.622 268.25C582.622 267.143 582.858 266.102 583.33 265.125C583.818 264.148 584.51 263.286 585.405 262.537C586.317 261.772 587.424 261.178 588.726 260.755C590.044 260.315 591.525 260.096 593.169 260.096C595.464 260.096 597.433 260.462 599.077 261.194C600.737 261.927 602.007 262.936 602.886 264.222C603.781 265.491 604.229 266.94 604.229 268.567H597.197C597.197 267.884 597.051 267.273 596.758 266.736C596.481 266.183 596.042 265.752 595.439 265.442C594.854 265.117 594.089 264.954 593.145 264.954C592.363 264.954 591.688 265.092 591.118 265.369C590.549 265.63 590.109 265.988 589.8 266.443C589.507 266.883 589.36 267.371 589.36 267.908C589.36 268.315 589.442 268.681 589.604 269.007C589.784 269.316 590.068 269.601 590.459 269.861C590.85 270.122 591.354 270.366 591.973 270.594C592.607 270.805 593.389 271.001 594.316 271.18C596.221 271.57 597.922 272.083 599.419 272.718C600.916 273.336 602.104 274.183 602.983 275.257C603.862 276.315 604.302 277.706 604.302 279.432C604.302 280.604 604.041 281.678 603.521 282.654C603 283.631 602.251 284.485 601.274 285.218C600.298 285.934 599.126 286.495 597.759 286.902C596.408 287.293 594.886 287.488 593.193 287.488C590.736 287.488 588.652 287.049 586.943 286.17C585.251 285.291 583.965 284.176 583.086 282.825C582.223 281.458 581.792 280.058 581.792 278.626H588.457C588.49 279.586 588.734 280.359 589.189 280.945C589.661 281.531 590.256 281.954 590.972 282.215C591.704 282.475 592.493 282.605 593.34 282.605C594.251 282.605 595.008 282.483 595.61 282.239C596.213 281.979 596.668 281.637 596.978 281.214C597.303 280.774 597.466 280.27 597.466 279.7ZM642.363 275.208H649.663C649.517 277.601 648.857 279.725 647.686 281.58C646.53 283.436 644.91 284.884 642.827 285.926C640.76 286.967 638.27 287.488 635.356 287.488C633.078 287.488 631.035 287.098 629.229 286.316C627.422 285.519 625.876 284.38 624.59 282.898C623.32 281.417 622.352 279.627 621.685 277.527C621.017 275.428 620.684 273.076 620.684 270.472V268.006C620.684 265.402 621.025 263.05 621.709 260.95C622.409 258.834 623.402 257.036 624.688 255.555C625.99 254.074 627.544 252.934 629.351 252.137C631.157 251.339 633.175 250.94 635.405 250.94C638.368 250.94 640.866 251.478 642.9 252.552C644.951 253.626 646.538 255.107 647.661 256.995C648.8 258.883 649.484 261.032 649.712 263.44H642.388C642.306 262.008 642.021 260.796 641.533 259.803C641.045 258.794 640.304 258.037 639.312 257.532C638.335 257.011 637.033 256.751 635.405 256.751C634.185 256.751 633.118 256.979 632.207 257.435C631.296 257.89 630.531 258.582 629.912 259.51C629.294 260.438 628.83 261.609 628.521 263.025C628.228 264.425 628.081 266.069 628.081 267.957V270.472C628.081 272.311 628.219 273.93 628.496 275.33C628.773 276.714 629.196 277.885 629.766 278.846C630.352 279.79 631.1 280.506 632.012 280.994C632.939 281.466 634.054 281.702 635.356 281.702C636.886 281.702 638.148 281.458 639.141 280.97C640.133 280.481 640.89 279.757 641.411 278.797C641.948 277.837 642.266 276.64 642.363 275.208ZM652.91 274.061V273.548C652.91 271.611 653.187 269.829 653.74 268.201C654.294 266.557 655.099 265.133 656.157 263.929C657.215 262.724 658.517 261.788 660.063 261.121C661.61 260.438 663.384 260.096 665.386 260.096C667.388 260.096 669.17 260.438 670.732 261.121C672.295 261.788 673.605 262.724 674.663 263.929C675.737 265.133 676.551 266.557 677.104 268.201C677.658 269.829 677.935 271.611 677.935 273.548V274.061C677.935 275.981 677.658 277.763 677.104 279.407C676.551 281.035 675.737 282.459 674.663 283.68C673.605 284.884 672.303 285.82 670.757 286.487C669.211 287.155 667.437 287.488 665.435 287.488C663.433 287.488 661.65 287.155 660.088 286.487C658.542 285.82 657.231 284.884 656.157 283.68C655.099 282.459 654.294 281.035 653.74 279.407C653.187 277.763 652.91 275.981 652.91 274.061ZM659.941 273.548V274.061C659.941 275.167 660.039 276.201 660.234 277.161C660.43 278.121 660.739 278.968 661.162 279.7C661.602 280.416 662.171 280.978 662.871 281.385C663.571 281.792 664.425 281.995 665.435 281.995C666.411 281.995 667.249 281.792 667.949 281.385C668.649 280.978 669.211 280.416 669.634 279.7C670.057 278.968 670.366 278.121 670.562 277.161C670.773 276.201 670.879 275.167 670.879 274.061V273.548C670.879 272.474 670.773 271.465 670.562 270.521C670.366 269.56 670.049 268.714 669.609 267.981C669.186 267.233 668.625 266.647 667.925 266.224C667.225 265.8 666.379 265.589 665.386 265.589C664.393 265.589 663.547 265.8 662.847 266.224C662.163 266.647 661.602 267.233 661.162 267.981C660.739 268.714 660.43 269.56 660.234 270.521C660.039 271.465 659.941 272.474 659.941 273.548ZM689.678 249.5V287H682.622V249.5H689.678ZM694.365 274.061V273.548C694.365 271.611 694.642 269.829 695.195 268.201C695.749 266.557 696.554 265.133 697.612 263.929C698.67 262.724 699.972 261.788 701.519 261.121C703.065 260.438 704.839 260.096 706.841 260.096C708.843 260.096 710.625 260.438 712.188 261.121C713.75 261.788 715.06 262.724 716.118 263.929C717.192 265.133 718.006 266.557 718.56 268.201C719.113 269.829 719.39 271.611 719.39 273.548V274.061C719.39 275.981 719.113 277.763 718.56 279.407C718.006 281.035 717.192 282.459 716.118 283.68C715.06 284.884 713.758 285.82 712.212 286.487C710.666 287.155 708.892 287.488 706.89 287.488C704.888 287.488 703.105 287.155 701.543 286.487C699.997 285.82 698.687 284.884 697.612 283.68C696.554 282.459 695.749 281.035 695.195 279.407C694.642 277.763 694.365 275.981 694.365 274.061ZM701.396 273.548V274.061C701.396 275.167 701.494 276.201 701.689 277.161C701.885 278.121 702.194 278.968 702.617 279.7C703.057 280.416 703.626 280.978 704.326 281.385C705.026 281.792 705.881 281.995 706.89 281.995C707.866 281.995 708.704 281.792 709.404 281.385C710.104 280.978 710.666 280.416 711.089 279.7C711.512 278.968 711.821 278.121 712.017 277.161C712.228 276.201 712.334 275.167 712.334 274.061V273.548C712.334 272.474 712.228 271.465 712.017 270.521C711.821 269.56 711.504 268.714 711.064 267.981C710.641 267.233 710.08 266.647 709.38 266.224C708.68 265.8 707.834 265.589 706.841 265.589C705.848 265.589 705.002 265.8 704.302 266.224C703.618 266.647 703.057 267.233 702.617 267.981C702.194 268.714 701.885 269.56 701.689 270.521C701.494 271.465 701.396 272.474 701.396 273.548ZM730.742 266.346V287H723.711V260.584H730.327L730.742 266.346ZM738.701 260.413L738.579 266.932C738.237 266.883 737.822 266.842 737.334 266.81C736.862 266.761 736.431 266.736 736.04 266.736C735.047 266.736 734.185 266.867 733.452 267.127C732.736 267.371 732.134 267.737 731.646 268.226C731.174 268.714 730.815 269.308 730.571 270.008C730.343 270.708 730.213 271.505 730.181 272.4L728.765 271.961C728.765 270.252 728.936 268.681 729.277 267.249C729.619 265.8 730.116 264.539 730.767 263.465C731.434 262.391 732.248 261.561 733.208 260.975C734.168 260.389 735.267 260.096 736.504 260.096C736.895 260.096 737.293 260.128 737.7 260.193C738.107 260.242 738.441 260.315 738.701 260.413ZM749.443 260.584V287H742.388V260.584H749.443ZM741.948 253.699C741.948 252.674 742.306 251.827 743.022 251.16C743.739 250.493 744.699 250.159 745.903 250.159C747.091 250.159 748.044 250.493 748.76 251.16C749.492 251.827 749.858 252.674 749.858 253.699C749.858 254.725 749.492 255.571 748.76 256.238C748.044 256.906 747.091 257.239 745.903 257.239C744.699 257.239 743.739 256.906 743.022 256.238C742.306 255.571 741.948 254.725 741.948 253.699ZM776.274 281.507V287H756.206V281.507H776.274ZM775.884 264.637L759.038 287H754.326V282.825L771.099 260.584H775.884V264.637ZM773.394 260.584V266.102H754.717V260.584H773.394ZM792.461 287.488C790.41 287.488 788.571 287.163 786.943 286.512C785.316 285.844 783.932 284.925 782.793 283.753C781.67 282.581 780.807 281.222 780.205 279.676C779.603 278.113 779.302 276.453 779.302 274.695V273.719C779.302 271.717 779.587 269.886 780.156 268.226C780.726 266.565 781.54 265.125 782.598 263.904C783.672 262.684 784.974 261.748 786.504 261.097C788.034 260.429 789.759 260.096 791.68 260.096C793.551 260.096 795.212 260.405 796.66 261.023C798.109 261.642 799.321 262.521 800.298 263.66C801.291 264.799 802.039 266.167 802.544 267.762C803.049 269.34 803.301 271.098 803.301 273.035V275.965H782.305V271.277H796.392V270.74C796.392 269.764 796.213 268.893 795.854 268.128C795.513 267.347 794.992 266.728 794.292 266.272C793.592 265.817 792.697 265.589 791.606 265.589C790.679 265.589 789.881 265.792 789.214 266.199C788.547 266.606 788.001 267.176 787.578 267.908C787.171 268.641 786.862 269.503 786.65 270.496C786.455 271.473 786.357 272.547 786.357 273.719V274.695C786.357 275.753 786.504 276.73 786.797 277.625C787.106 278.52 787.537 279.293 788.091 279.944C788.66 280.595 789.344 281.1 790.142 281.458C790.955 281.816 791.875 281.995 792.9 281.995C794.17 281.995 795.35 281.751 796.44 281.263C797.547 280.758 798.499 280.001 799.297 278.992L802.715 282.703C802.161 283.501 801.405 284.266 800.444 284.998C799.5 285.73 798.361 286.333 797.026 286.805C795.692 287.26 794.17 287.488 792.461 287.488ZM814.336 266.346V287H807.305V260.584H813.921L814.336 266.346ZM822.295 260.413L822.173 266.932C821.831 266.883 821.416 266.842 820.928 266.81C820.456 266.761 820.024 266.736 819.634 266.736C818.641 266.736 817.778 266.867 817.046 267.127C816.33 267.371 815.728 267.737 815.239 268.226C814.767 268.714 814.409 269.308 814.165 270.008C813.937 270.708 813.807 271.505 813.774 272.4L812.358 271.961C812.358 270.252 812.529 268.681 812.871 267.249C813.213 265.8 813.709 264.539 814.36 263.465C815.028 262.391 815.841 261.561 816.802 260.975C817.762 260.389 818.861 260.096 820.098 260.096C820.488 260.096 820.887 260.128 821.294 260.193C821.701 260.242 822.035 260.315 822.295 260.413Z" fill="black" style="fill:black;fill-opacity:1;"/>
</g>
<defs>
<filter id="filter0_d_4_36" x="0" y="0" width="968" height="548" filterUnits="userSpaceOnUse" color-interpolation-filters="sRGB">
<feFlood flood-opacity="0" result="BackgroundImageFix"/>
<feColorMatrix in="SourceAlpha" type="matrix" values="0 0 0 0 0 0 0 0 0 0 0 0 0 0 0 0 0 0 127 0" result="hardAlpha"/>
<feOffset dy="4"/>
<feGaussianBlur stdDeviation="2"/>
<feComposite in2="hardAlpha" operator="out"/>
<feColorMatrix type="matrix" values="0 0 0 0 0 0 0 0 0 0 0 0 0 0 0 0 0 0 0.25 0"/>
<feBlend mode="normal" in2="BackgroundImageFix" result="effect1_dropShadow_4_36"/>
<feBlend mode="normal" in="SourceGraphic" in2="effect1_dropShadow_4_36" result="shape"/>
</filter>
</defs>
</svg>
