<svg width="64" height="64" viewBox="0 0 64 64" fill="none" xmlns="http://www.w3.org/2000/svg">
<g clip-path="url(#clip0_69_2)">
<path d="M32.5 32.5C32.5 29.129 35.2697 26.3961 38.6864 26.3961C42.103 26.3961 44.8727 29.129 44.8727 32.5C44.8727 35.8711 42.103 38.6039 38.6864 38.6039C35.2697 38.6039 32.5 35.8711 32.5 32.5Z" fill="#1ABCFE" style="fill:#1ABCFE;fill:color(display-p3 0.1020 0.7373 0.9961);fill-opacity:1;"/>
<path d="M20.1273 44.7078C20.1273 41.3367 22.897 38.6039 26.3136 38.6039H32.5V44.7078C32.5 48.0789 29.7303 50.8117 26.3136 50.8117C22.897 50.8117 20.1273 48.0789 20.1273 44.7078Z" fill="#0ACF83" style="fill:#0ACF83;fill:color(display-p3 0.0392 0.8118 0.5137);fill-opacity:1;"/>
<path d="M32.5 14.1884V26.3961H38.6864C42.103 26.3961 44.8727 23.6633 44.8727 20.2922C44.8727 16.9212 42.103 14.1884 38.6864 14.1884H32.5Z" fill="#FF7262" style="fill:#FF7262;fill:color(display-p3 1.0000 0.4471 0.3843);fill-opacity:1;"/>
<path d="M20.1273 20.2922C20.1273 23.6633 22.897 26.3961 26.3136 26.3961H32.5V14.1884H26.3136C22.897 14.1884 20.1273 16.9212 20.1273 20.2922Z" fill="#F24E1E" style="fill:#F24E1E;fill:color(display-p3 0.9490 0.3059 0.1176);fill-opacity:1;"/>
<path d="M20.1273 32.5C20.1273 35.8711 22.897 38.6039 26.3136 38.6039H32.5V26.3961H26.3136C22.897 26.3961 20.1273 29.129 20.1273 32.5Z" fill="#A259FF" style="fill:#A259FF;fill:color(display-p3 0.6353 0.3490 1.0000);fill-opacity:1;"/>
</g>
<defs>
<clipPath id="clip0_69_2">
<rect width="25" height="37" fill="white" style="fill:white;fill-opacity:1;" transform="translate(20 14)"/>
</clipPath>
</defs>
</svg>
