<svg width="64" height="64" viewBox="0 0 64 64" fill="none" xmlns="http://www.w3.org/2000/svg">
<g clip-path="url(#clip0_23_50)">
<path fill-rule="evenodd" clip-rule="evenodd" d="M31.9404 12C20.9139 12 12 20.9796 12 32.0886C12 40.9686 17.7114 48.4853 25.6347 51.1457C26.6253 51.3457 26.9882 50.7135 26.9882 50.1816C26.9882 49.7159 26.9555 48.1196 26.9555 46.4563C21.4086 47.6539 20.2535 44.0616 20.2535 44.0616C19.362 41.7335 18.0412 41.1351 18.0412 41.1351C16.2257 39.9045 18.1735 39.9045 18.1735 39.9045C20.1873 40.0375 21.2441 41.9665 21.2441 41.9665C23.0265 45.0261 25.8988 44.1616 27.0543 43.6294C27.2192 42.3322 27.7478 41.4343 28.309 40.9355C23.8849 40.4698 19.2302 38.7404 19.2302 31.0241C19.2302 28.829 20.022 27.0331 21.2767 25.6363C21.0788 25.1376 20.3853 23.0751 21.4751 20.3147C21.4751 20.3147 23.1588 19.7824 26.9551 22.3767C28.5804 21.937 30.2566 21.7133 31.9404 21.7114C33.6241 21.7114 35.3404 21.9445 36.9253 22.3767C40.722 19.7824 42.4057 20.3147 42.4057 20.3147C43.4955 23.0751 42.8016 25.1376 42.6037 25.6363C43.8914 27.0331 44.6506 28.829 44.6506 31.0241C44.6506 38.7404 39.9959 40.4363 35.5388 40.9355C36.2653 41.5673 36.8922 42.7645 36.8922 44.6604C36.8922 47.3543 36.8596 49.5163 36.8596 50.1812C36.8596 50.7135 37.2229 51.3457 38.2131 51.1461C46.1363 48.4849 51.8478 40.9686 51.8478 32.0886C51.8804 20.9796 42.9339 12 31.9404 12Z" fill="#24292F" style="fill:#24292F;fill:color(display-p3 0.1412 0.1608 0.1843);fill-opacity:1;"/>
</g>
<defs>
<clipPath id="clip0_23_50">
<rect width="40" height="39.1837" fill="white" style="fill:white;fill-opacity:1;" transform="translate(12 12)"/>
</clipPath>
</defs>
</svg>
