<svg width="33" height="32" viewBox="0 0 33 32" fill="none" xmlns="http://www.w3.org/2000/svg">
<path d="M25.0008 6.59009L25.9058 7.49569L16.3122 17.0893L15.4072 16.1843L25.0008 6.59009Z" fill="black" style="fill:black;fill-opacity:1;"/>
<path d="M26.0965 12.8H24.8165V7.68002H19.6965V6.40002H26.0965V12.8ZM22.8965 24.32H10.0965C9.00851 24.32 8.17651 23.488 8.17651 22.4V9.60002C8.17651 8.51202 9.00851 7.68002 10.0965 7.68002H17.1365V8.96002H10.0965C9.71251 8.96002 9.45651 9.21602 9.45651 9.60002V22.4C9.45651 22.784 9.71251 23.04 10.0965 23.04H22.8965C23.2805 23.04 23.5365 22.784 23.5365 22.4V15.36H24.8165V22.4C24.8165 23.488 23.9845 24.32 22.8965 24.32Z" fill="black" style="fill:black;fill-opacity:1;"/>
</svg>
