<svg width="64" height="64" viewBox="0 0 64 64" fill="none" xmlns="http://www.w3.org/2000/svg">
<path d="M19.4 50C17.9 50 16.625 49.475 15.575 48.425C14.525 47.375 14 46.1 14 44.6V19.4C14 17.9 14.525 16.625 15.575 15.575C16.625 14.525 17.9 14 19.4 14H44.6C46.1 14 47.375 14.525 48.425 15.575C49.475 16.625 50 17.9 50 19.4V44.6C50 46.1 49.475 47.375 48.425 48.425C47.375 49.475 46.1 50 44.6 50H19.4ZM19.4 46.4H44.6C45.11 46.4 45.5372 46.2272 45.8816 45.8816C46.2272 45.5372 46.4 45.11 46.4 44.6V19.4C46.4 18.89 46.2272 18.4622 45.8816 18.1166C45.5372 17.7722 45.11 17.6 44.6 17.6H19.4C18.89 17.6 18.4622 17.7722 18.1166 18.1166C17.7722 18.4622 17.6 18.89 17.6 19.4V44.6C17.6 45.11 17.7722 45.5372 18.1166 45.8816C18.4622 46.2272 18.89 46.4 19.4 46.4ZM21.2 42.8L28.4 35.6L31.64 38.795L35.6 33.8L42.8 42.8H21.2ZM24.8 28.4C23.81 28.4 22.9628 28.0472 22.2584 27.3416C21.5528 26.6372 21.2 25.79 21.2 24.8C21.2 23.81 21.5528 22.9628 22.2584 22.2584C22.9628 21.5528 23.81 21.2 24.8 21.2C25.79 21.2 26.6378 21.5528 27.3434 22.2584C28.0478 22.9628 28.4 23.81 28.4 24.8C28.4 25.79 28.0478 26.6372 27.3434 27.3416C26.6378 28.0472 25.79 28.4 24.8 28.4Z" fill="#434343" style="fill:#434343;fill:color(display-p3 0.2627 0.2627 0.2627);fill-opacity:1;"/>
</svg>
