<svg width="64" height="64" viewBox="0 0 64 64" fill="none" xmlns="http://www.w3.org/2000/svg">
<g clip-path="url(#clip0_24_76)">
<path d="M49.115 44.3075H14.885C14.1203 44.3075 13.3869 44.0039 12.8459 43.4634C12.3049 42.9229 12.0007 42.1897 12 41.425V22.5775C12 21.8124 12.304 21.0785 12.845 20.5375C13.386 19.9965 14.1199 19.6925 14.885 19.6925H49.115C49.8797 19.6925 50.6131 19.9961 51.1541 20.5366C51.6951 21.0771 51.9993 21.8103 52 22.575V41.42C52 42.1852 51.696 42.919 51.155 43.46C50.614 44.0011 49.8801 44.305 49.115 44.305V44.3075ZM21.615 38.5375V31.0375L25.4625 35.845L29.3075 31.0375V38.5375H33.155V25.4625H29.3075L25.4625 30.27L21.615 25.4625H17.77V38.5375H21.615ZM47.385 32H43.5375V25.4625H39.6925V32H35.845L41.615 38.73L47.385 32Z" fill="#0162D5" style="fill:#0162D5;fill:color(display-p3 0.0041 0.3861 0.8346);fill-opacity:1;"/>
</g>
<defs>
<clipPath id="clip0_24_76">
<rect width="40" height="40" fill="white" style="fill:white;fill-opacity:1;" transform="translate(12 12)"/>
</clipPath>
</defs>
</svg>
